<svg id="Layer_3" data-name="Layer 3" xmlns="http://www.w3.org/2000/svg" viewBox="0 0 334.62 326.11"><defs><style>.cls-1{fill:none;stroke-width:45px;}.cls-1,.cls-2{stroke:#152f44;stroke-miterlimit:10;}.cls-2{fill:#152f44;stroke-width:5px;}</style></defs><title>logo_vector</title><path class="cls-1" d="M7147,6618.4h131.88c19.45.43,33.24,24.54,36.17,29.67a82.64,82.64,0,0,1,9.18,25.22s9.46,38.28-1.51,74.14a95.7,95.7,0,0,1-4.75,12.36c-3.14,6.67-6.52,13.86-13.79,20.67a49.81,49.81,0,0,1-16.16,10.22,47.25,47.25,0,0,1-7.6,2.14H7201l-1,106.69h-53v-.95H7088l-2.8-.24c-5.42-.51-10.46-1.25-12.53-1.66a38.42,38.42,0,0,1-18.89-10.1c-4.85-4.85-6.87-9.87-8.91-15.09a75.24,75.24,0,0,1-5-24.24c-2.07-40.83-1.5-62.29-.72-88.16.05-1.4.14-4.19.6-7.84.94-7.48,2.39-19,9.74-28.75,7.47-9.93,17.95-13.95,23.53-15.56l73.66-.95Z" transform="translate(-7015.9 -6595.9)"/><rect class="cls-2" x="145" y="3.61" width="33.74" height="303.68"/></svg>